<svg width="22" height="22" viewBox="0 0 22 22" fill="none" xmlns="http://www.w3.org/2000/svg">
<path d="M11 11H11.0125M5 21H17C18.4001 21 19.1003 21 19.635 20.7275C20.1054 20.4879 20.4879 20.1054 20.7275 19.635C21 19.1003 21 18.4001 21 17V5C21 3.59987 21 2.8998 20.7275 2.36503C20.4879 1.89461 20.1054 1.51216 19.635 1.27249C19.1003 1 18.4001 1 17 1H5C3.59987 1 2.8998 1 2.36503 1.27249C1.89461 1.51216 1.51216 1.89461 1.27249 2.36503C1 2.8998 1 3.59986 1 5V17C1 18.4001 1 19.1003 1.27249 19.635C1.51216 20.1054 1.89461 20.4879 2.36503 20.7275C2.8998 21 3.59986 21 5 21ZM17.25 11C17.25 14.4517 14.4517 17.25 11 17.25C7.54822 17.25 4.75 14.4517 4.75 11C4.75 7.54822 7.54822 4.75 11 4.75C14.4517 4.75 17.25 7.54822 17.25 11ZM11.625 11C11.625 11.3451 11.3451 11.625 11 11.625C10.6549 11.625 10.375 11.3451 10.375 11C10.375 10.6549 10.6549 10.375 11 10.375C11.3451 10.375 11.625 10.6549 11.625 11Z" stroke="white" stroke-width="2" stroke-linecap="round" stroke-linejoin="round"/>
</svg>
